<?xml version="1.0" encoding="UTF-8"?>
<svg version="1.1" xmlns="http://www.w3.org/2000/svg" width="500" height="500">
<path d="M0 0 C9.72836902 -0.27191094 17.95519127 1.79544994 26.640625 6.1171875 C26.640625 6.7771875 26.640625 7.4371875 26.640625 8.1171875 C25.157287 9.05434672 23.6261581 9.91626224 22.078125 10.7421875 C18.21933395 12.92183935 15.91904131 14.80930734 13.390625 18.4296875 C11.10105094 21.29842096 10.1262667 22.03277976 6.44921875 22.671875 C4.02175875 22.76090805 1.5929877 22.81917205 -0.8359375 22.84765625 C-6.12661657 23.2523756 -9.85997805 25.50064232 -14.359375 28.1171875 C-15.349375 28.4471875 -16.339375 28.7771875 -17.359375 29.1171875 C-17.359375 29.7771875 -17.359375 30.4371875 -17.359375 31.1171875 C-18.019375 31.1171875 -18.679375 31.1171875 -19.359375 31.1171875 C-19.359375 31.7771875 -19.359375 32.4371875 -19.359375 33.1171875 C-20.019375 33.1171875 -20.679375 33.1171875 -21.359375 33.1171875 C-21.6275 33.8184375 -21.895625 34.5196875 -22.171875 35.2421875 C-23.359375 38.1171875 -23.359375 38.1171875 -24.921875 41.1171875 C-28.80241533 49.21570644 -27.94474727 57.54704589 -25.2265625 65.8828125 C-24.21324554 68.49370124 -22.89392701 70.77882254 -21.359375 73.1171875 C-21.359375 73.7771875 -21.359375 74.4371875 -21.359375 75.1171875 C-20.699375 75.1171875 -20.039375 75.1171875 -19.359375 75.1171875 C-18.658125 75.8596875 -17.956875 76.6021875 -17.234375 77.3671875 C-10.94358432 83.38446554 -3.91399607 85.41940509 4.64453125 85.33984375 C10.85263891 84.87848503 16.27274146 83.65013641 20.640625 79.1171875 C21.300625 79.1171875 21.960625 79.1171875 22.640625 79.1171875 C22.640625 78.1271875 22.640625 77.1371875 22.640625 76.1171875 C18.6699454 75.19735158 14.87900438 74.92630052 10.80859375 74.80078125 C9.51630859 74.75888672 8.22402344 74.71699219 6.89257812 74.67382812 C5.53776308 74.63402398 4.18294533 74.59431159 2.828125 74.5546875 C1.45376395 74.51145027 0.07941476 74.46783438 -1.29492188 74.42382812 C-4.64964169 74.3178896 -8.0044336 74.21581561 -11.359375 74.1171875 C-9.80925876 68.96373483 -7.63689382 65.75126488 -3.921875 61.9296875 C-3.18614258 61.14948242 -3.18614258 61.14948242 -2.43554688 60.35351562 C-1.08857237 58.93019438 0.27538559 57.52299866 1.640625 56.1171875 C2.02790771 55.57674805 2.41519043 55.03630859 2.81420898 54.47949219 C5.73799599 52.2986699 8.9799855 52.62904671 12.4921875 52.61328125 C13.65238907 52.59830345 13.65238907 52.59830345 14.83602905 52.58302307 C16.47510435 52.56783556 18.11427238 52.56079748 19.75341797 52.5612793 C22.23695639 52.55476272 24.71639623 52.50042724 27.19921875 52.44335938 C41.58736502 52.2910097 41.58736502 52.2910097 48.10424805 57.58032227 C50.22526373 59.70201203 51.70222193 61.22979344 52.640625 64.1171875 C51.440625 69.3171875 51.440625 69.3171875 49.640625 71.1171875 C50.300625 71.4471875 50.960625 71.7771875 51.640625 72.1171875 C48.32088684 84.73219249 39.64925807 94.5760468 28.640625 101.1171875 C15.25639848 107.74118765 0.12036697 109.52194934 -14.359375 105.1171875 C-18.13337423 103.65048734 -21.74099624 101.92637688 -25.359375 100.1171875 C-25.359375 99.4571875 -25.359375 98.7971875 -25.359375 98.1171875 C-23.379375 97.6221875 -23.379375 97.6221875 -21.359375 97.1171875 C-22.27460938 96.91222656 -23.18984375 96.70726562 -24.1328125 96.49609375 C-25.32132813 96.22667969 -26.50984375 95.95726562 -27.734375 95.6796875 C-28.91773438 95.41285156 -30.10109375 95.14601563 -31.3203125 94.87109375 C-34.359375 94.1171875 -34.359375 94.1171875 -36.359375 93.1171875 C-37.04957822 91.46012934 -37.71258061 89.7916663 -38.359375 88.1171875 C-39.28873183 86.53728089 -40.24847667 84.97494266 -41.234375 83.4296875 C-48.90180932 70.83184921 -51.55209158 57.00264516 -48.609375 42.3671875 C-44.46378885 26.82123944 -36.00572206 14.70034099 -22.359375 6.1171875 C-14.85665512 2.27617242 -8.36075333 0.41526921 0 0 Z " fill="#E54F37" transform="translate(264.359375,205.8828125)"/>
<path d="M0 0 C2.42387321 0.58717859 4.58795812 0.54837577 7.078125 0.48828125 C10.17507557 0.41376815 12.03638495 0.49520123 15.015625 1.48828125 C14.685625 2.80828125 14.355625 4.12828125 14.015625 5.48828125 C13.355625 5.48828125 12.695625 5.48828125 12.015625 5.48828125 C11.768125 6.18953125 11.520625 6.89078125 11.265625 7.61328125 C10.015625 10.48828125 10.015625 10.48828125 7.828125 13.42578125 C5.78999886 16.29881252 5.78999886 16.29881252 5.953125 19.30078125 C7.17262979 22.95929563 8.87135931 26.04574798 10.859375 29.33984375 C12.82841225 32.99852782 13.138673 36.12101733 13.078125 40.23828125 C13.06910156 41.0375 13.06007813 41.83671875 13.05078125 42.66015625 C13.03917969 43.2634375 13.02757812 43.86671875 13.015625 44.48828125 C10.54383931 43.30772689 8.54592918 42.13874017 6.328125 40.48828125 C-1.62554231 35.68606702 -10.51110869 36.23327022 -19.546875 36.36328125 C-21.34608398 36.37681641 -21.34608398 36.37681641 -23.18164062 36.390625 C-26.11609809 36.41400713 -29.05012734 36.44677845 -31.984375 36.48828125 C-33.32890516 33.79922094 -32.38764933 32.5451612 -31.51171875 29.80859375 C-30.84562387 26.87777628 -30.78679707 24.05268502 -30.671875 21.05078125 C-30.1632151 13.41211278 -27.66837053 8.769883 -22.109375 3.61328125 C-15.73276309 -0.72281485 -7.52791256 -1.94125304 0 0 Z M-11.984375 8.48828125 C-12.314375 9.47828125 -12.644375 10.46828125 -12.984375 11.48828125 C-11.994375 11.48828125 -11.004375 11.48828125 -9.984375 11.48828125 C-10.314375 10.49828125 -10.644375 9.50828125 -10.984375 8.48828125 C-11.314375 8.48828125 -11.644375 8.48828125 -11.984375 8.48828125 Z " fill="#E45039" transform="translate(305.984375,218.51171875)"/>
<path d="M0 0 C0.77085937 -0.01417969 1.54171875 -0.02835937 2.3359375 -0.04296875 C4.88077673 0.21325226 6.46673306 0.83142077 8.625 2.1875 C9.5 4.125 9.5 4.125 9.625 6.1875 C8.635 7.6725 8.635 7.6725 7.625 9.1875 C8.615 9.8475 9.605 10.5075 10.625 11.1875 C11.38780717 15.24397846 11.29537505 19.12092736 10.625 23.1875 C7.60047796 26.51447425 4.98875146 27.38539413 0.625 27.6875 C-4.47959321 27.41421394 -7.70066666 24.91956897 -11.1875 21.3125 C-13.43626353 17.28839684 -13.53953422 14.12534506 -12.75 9.625 C-10.28212107 3.45530268 -6.60747082 0.05487933 0 0 Z M-4.25 9.3125 C-5.65268837 11.26141181 -5.65268837 11.26141181 -5.25 14.25 C-4.62849587 17.48005415 -4.62849587 17.48005415 -1.375 19.1875 C-0.055 19.1875 1.265 19.1875 2.625 19.1875 C2.625 18.5275 2.625 17.8675 2.625 17.1875 C1.305 16.8575 -0.015 16.5275 -1.375 16.1875 C-1.375 14.5375 -1.375 12.8875 -1.375 11.1875 C0.275 10.8575 1.925 10.5275 3.625 10.1875 C3.295 9.5275 2.965 8.8675 2.625 8.1875 C-0.1398665 7.96332164 -1.83777487 7.86516492 -4.25 9.3125 Z " fill="#E35540" transform="translate(161.375,331.8125)"/>
<path d="M0 0 C3.0625 1.5 3.0625 1.5 5 3 C4.835 3.78375 4.67 4.5675 4.5 5.375 C3.9376293 7.88208039 3.9376293 7.88208039 4 10 C4.66 10.66 5.32 11.32 6 12 C6.69451672 16.63549529 6.94125248 20.71362161 4.125 24.5625 C0.16920016 27.23848225 -3.29321738 27.63984196 -8 27 C-11.94280547 24.91700843 -14.67747894 22.79988402 -17 19 C-17.66917826 14.94589506 -17.60565889 11.06180414 -17 7 C-12.31636924 0.67076924 -7.54504838 -0.9117484 0 0 Z M-9 10 C-9.41666667 13.5 -9.41666667 13.5 -9 17 C-6.04622502 19.36980013 -6.04622502 19.36980013 -2 19 C-2 18.34 -2 17.68 -2 17 C-3.32 17 -4.64 17 -6 17 C-6 14.69 -6 12.38 -6 10 C-4.35 10 -2.7 10 -1 10 C-1.33 9.34 -1.66 8.68 -2 8 C-5.95457848 7.65176193 -5.95457848 7.65176193 -9 10 Z " fill="#E44D36" transform="translate(304,332)"/>
<path d="M0 0 C3 1.375 3 1.375 5 3 C5 3.66 5 4.32 5 5 C5.66 5 6.32 5 7 5 C8.69242399 7.95502601 9.27328801 10.09995022 9.25 13.5 C9.25515625 14.2528125 9.2603125 15.005625 9.265625 15.78125 C8.97250404 18.2296721 8.21816769 19.87304054 7 22 C6.34 22 5.68 22 5 22 C4.67 22.99 4.34 23.98 4 25 C0.98894687 27.28840038 -2.25919429 27.42314319 -5.97265625 27.3125 C-9.42656706 26.78010527 -11.41844495 25.28137423 -14 23 C-16.9161054 18.62584189 -17.7186857 15.21047133 -17 10 C-13.35171048 2.022986 -9.06449817 -1.20261659 0 0 Z M-7.8125 9.0625 C-9.67811985 12.10640607 -8.69878609 14.63312157 -8 18 C-5.14221967 18.68493373 -5.14221967 18.68493373 -2 19 C-1.01 18.34 -0.02 17.68 1 17 C1.407974 13.80420369 1.56681719 11.85022579 -0.25 9.125 C-2.90225192 7.41998091 -5.10935151 7.47789571 -7.8125 9.0625 Z " fill="#DD6754" transform="translate(331,332)"/>
<path d="M0 0 C4.75734783 2.42531458 7.71438001 5.15448563 10 10 C10.43022929 14.79275429 9.66430924 18.659149 6.625 22.4375 C3.32532365 25.65861263 1.83375298 26.91799151 -2.8125 27.375 C-8.09372947 27.25828775 -11.34859833 24.65140167 -15 21 C-16.63375585 16.5888592 -16.46493598 11.81747703 -15.3125 7.3125 C-11.77610485 1.08170854 -6.78888116 -0.5657401 0 0 Z M-7.3125 9.75 C-9.2205427 11.80659131 -9.2205427 11.80659131 -8.9375 14.0625 C-7.84557715 16.31914055 -7.08808393 17.58308591 -5 19 C-2.40882687 18.99843776 -2.40882687 18.99843776 0 18 C2.29637779 15.24104365 2.29637779 15.24104365 1.75 12.4375 C1.16191948 9.84999433 1.16191948 9.84999433 -1 8 C-4.95173357 7.59770489 -4.95173357 7.59770489 -7.3125 9.75 Z " fill="#E25038" transform="translate(360,332)"/>
<path d="M0 0 C5.742609 0.08289856 8.67858373 1.30358373 12.75 5.375 C12.84854655 7.01840867 12.87972411 8.6661461 12.875 10.3125 C12.87886719 11.65634766 12.87886719 11.65634766 12.8828125 13.02734375 C12.75 15.375 12.75 15.375 11.75 17.375 C12.35760482 19.7244053 13.02129528 22.06029088 13.75 24.375 C12.5 25.9375 12.5 25.9375 10.75 27.375 C8.6875 27.25 8.6875 27.25 6.75 26.375 C4.75 23.375 4.75 23.375 4.75 20.375 C3.43 20.375 2.11 20.375 0.75 20.375 C0.42 22.355 0.09 24.335 -0.25 26.375 C-2.625 27 -2.625 27 -5.25 27.375 C-7.81988681 24.80511319 -7.50706775 23.78589947 -7.515625 20.21875 C-7.51820313 19.19652344 -7.52078125 18.17429687 -7.5234375 17.12109375 C-7.51183594 15.51427734 -7.51183594 15.51427734 -7.5 13.875 C-7.50773437 12.80378906 -7.51546875 11.73257812 -7.5234375 10.62890625 C-7.52085937 9.60667969 -7.51828125 8.58445312 -7.515625 7.53125 C-7.51336914 6.59087891 -7.51111328 5.65050781 -7.50878906 4.68164062 C-6.97686526 -0.0595066 -4.08973574 0.05587071 0 0 Z M0.75 8.375 C0.75 10.025 0.75 11.675 0.75 13.375 C2.07 13.045 3.39 12.715 4.75 12.375 C4.75 11.055 4.75 9.735 4.75 8.375 C3.43 8.375 2.11 8.375 0.75 8.375 Z " fill="#E17362" transform="translate(269.25,331.625)"/>
<path d="M0 0 C1.65 0 3.3 0 5 0 C6.92445313 3.84890627 6.47529807 8.56948065 6.71875 12.8125 C6.79425082 15.89422513 6.79425082 15.89422513 8 18 C9.65 17.67 11.3 17.34 13 17 C13.04898438 15.94039063 13.09796875 14.88078125 13.1484375 13.7890625 C13.22346709 12.40101503 13.29901485 11.01299549 13.375 9.625 C13.42140625 8.57699219 13.42140625 8.57699219 13.46875 7.5078125 C13.7734375 2.2265625 13.7734375 2.2265625 16 0 C20.55555556 0.55555556 20.55555556 0.55555556 22 2 C22.15461551 4.41140721 22.23170241 6.77450571 22.25 9.1875 C22.27578125 10.50105469 22.3015625 11.81460937 22.328125 13.16796875 C21.88495275 18.34358754 20.30823482 21.57963077 16.8125 25.375 C13.10260593 27.51849435 10.19105175 27.85687495 6 27 C2.09499834 24.53815113 -0.50329405 22.03649439 -1.625 17.4375 C-2.97124523 5.0969187 -2.97124523 5.0969187 0 0 Z " fill="#DE4F36" transform="translate(178,332)"/>
<path d="M0 0 C3.58283348 2.23309836 4.76553394 5.27810447 6.36328125 9.02734375 C6.67458984 9.70861328 6.98589844 10.38988281 7.30664062 11.09179688 C8.63576122 14.07428506 9.55078125 16.29230037 9.55078125 19.58984375 C10.21078125 19.58984375 10.87078125 19.58984375 11.55078125 19.58984375 C11.73828125 21.96484375 11.73828125 21.96484375 11.55078125 24.58984375 C8.55078125 26.58984375 8.55078125 26.58984375 6.48828125 26.46484375 C3.97794708 25.33114445 3.52386923 24.10365437 2.55078125 21.58984375 C-1.48124211 21.23853173 -1.48124211 21.23853173 -5.44921875 21.58984375 C-7.53138751 23.94484005 -7.53138751 23.94484005 -8.44921875 26.58984375 C-10.09921875 26.25984375 -11.74921875 25.92984375 -13.44921875 25.58984375 C-14.71321894 22.05569921 -14.20825497 20.2705668 -12.68359375 16.89453125 C-12.28785156 16.01410156 -11.89210937 15.13367188 -11.484375 14.2265625 C-11.06027344 13.31519531 -10.63617188 12.40382813 -10.19921875 11.46484375 C-9.79058594 10.54574219 -9.38195312 9.62664062 -8.9609375 8.6796875 C-4.642071 -0.77738031 -4.642071 -0.77738031 0 0 Z " fill="#DD5D4B" transform="translate(246.44921875,332.41015625)"/>
<path d="M0 0 C1.02802734 -0.01224609 2.05605469 -0.02449219 3.11523438 -0.03710938 C4.58766602 -0.04000977 4.58766602 -0.04000977 6.08984375 -0.04296875 C6.99468506 -0.04707764 7.89952637 -0.05118652 8.83178711 -0.05541992 C11.0625 0.1875 11.0625 0.1875 13.0625 2.1875 C12.6875 4.8125 12.6875 4.8125 12.0625 7.1875 C9.4225 7.1875 6.7825 7.1875 4.0625 7.1875 C4.08570313 8.46367187 4.10890625 9.73984375 4.1328125 11.0546875 C4.15156829 12.7239525 4.16976869 14.3932238 4.1875 16.0625 C4.20425781 16.90425781 4.22101563 17.74601562 4.23828125 18.61328125 C4.24472656 19.41894531 4.25117188 20.22460938 4.2578125 21.0546875 C4.26828613 21.79831543 4.27875977 22.54194336 4.28955078 23.30810547 C4.0625 25.1875 4.0625 25.1875 2.0625 27.1875 C-2.49305556 26.63194444 -2.49305556 26.63194444 -3.9375 25.1875 C-4.02381874 23.84482587 -4.04456473 22.49775678 -4.03515625 21.15234375 C-4.03193359 20.34345703 -4.02871094 19.53457031 -4.02539062 18.70117188 C-4.01701172 17.85103516 -4.00863281 17.00089844 -4 16.125 C-3.99548828 15.27099609 -3.99097656 14.41699219 -3.98632812 13.53710938 C-3.97450373 11.42054337 -3.95656769 9.30401315 -3.9375 7.1875 C-5.6390625 7.2184375 -5.6390625 7.2184375 -7.375 7.25 C-10.9375 7.1875 -10.9375 7.1875 -11.9375 6.1875 C-12.0625 3.6875 -12.0625 3.6875 -11.9375 1.1875 C-9.51933834 -1.23066166 -3.24972181 0.00202981 0 0 Z " fill="#DA7061" transform="translate(215.9375,331.8125)"/>
<path d="M0 0 C3.0625 1.5 3.0625 1.5 5 3 C4.835 3.763125 4.67 4.52625 4.5 5.3125 C3.90854604 8.03596236 3.90854604 8.03596236 4 11 C1.36 11.33 -1.28 11.66 -4 12 C-4.33 13.32 -4.66 14.64 -5 16 C-3.68 16 -2.36 16 -1 16 C-1 17.32 -1 18.64 -1 20 C-2.47968324 19.85950482 -3.95874516 19.71245174 -5.4375 19.5625 C-6.26121094 19.48128906 -7.08492188 19.40007812 -7.93359375 19.31640625 C-10 19 -10 19 -11 18 C-11.23192865 16.48530552 -11.41215238 14.96245438 -11.5625 13.4375 C-11.64628906 12.61121094 -11.73007812 11.78492188 -11.81640625 10.93359375 C-11.87699219 10.29550781 -11.93757813 9.65742188 -12 9 C-12.99 9 -13.98 9 -15 9 C-15 12.63 -15 16.26 -15 20 C-15.66 19.67 -16.32 19.34 -17 19 C-17.78509961 8.06094542 -17.78509961 8.06094542 -14.6875 3.875 C-9.37555131 0.16898929 -6.41260907 -0.77490372 0 0 Z M-9 10 C-9.41666667 13.5 -9.41666667 13.5 -9 17 C-6.04622502 19.36980013 -6.04622502 19.36980013 -2 19 C-2 18.34 -2 17.68 -2 17 C-3.32 17 -4.64 17 -6 17 C-6 14.69 -6 12.38 -6 10 C-4.35 10 -2.7 10 -1 10 C-1.33 9.34 -1.66 8.68 -2 8 C-5.95457848 7.65176193 -5.95457848 7.65176193 -9 10 Z " fill="#E08070" transform="translate(304,332)"/>
<path d="M0 0 C0.99 0.33 1.98 0.66 3 1 C2.01 2.485 2.01 2.485 1 4 C0.34 4 -0.32 4 -1 4 C-1.16873478 5.43725871 -1.33490737 6.87481838 -1.5 8.3125 C-1.5928125 9.11300781 -1.685625 9.91351563 -1.78125 10.73828125 C-2.04813463 13.11896555 -2.04813463 13.11896555 -2 16 C-0.68 16.33 0.64 16.66 2 17 C1.77183594 16.38511719 1.54367187 15.77023437 1.30859375 15.13671875 C0.87740234 13.92435547 0.87740234 13.92435547 0.4375 12.6875 C0.14746094 11.88699219 -0.14257812 11.08648437 -0.44140625 10.26171875 C-1 8 -1 8 0 5 C2.98594424 3.50702788 5.70853624 3.88244772 9 4 C9.66 4.33 10.32 4.66 11 5 C10.67 5.66 10.34 6.32 10 7 C8.02 7 6.04 7 4 7 C3.06619039 11.53140653 3.06619039 11.53140653 4 16 C8.25731568 16.40749675 8.25731568 16.40749675 11.875 14.5 C12.24625 14.005 12.6175 13.51 13 13 C12.6875 14.875 12.6875 14.875 12 17 C9 19 9 19 5 19 C4.67 20.32 4.34 21.64 4 23 C6.64 23 9.28 23 12 23 C12 22.34 12 21.68 12 21 C12.99 21 13.98 21 15 21 C15 19.68 15 18.36 15 17 C15.99 17 16.98 17 18 17 C18 12.71 18 8.42 18 4 C21.42726348 8.56968464 21.42726348 8.56968464 21 12.375 C20.27515816 17.26365554 18.50382709 19.57959737 15 23 C11.29901576 25.46732283 8.29464299 25.68194709 4 25 C-3.2746114 20.95854922 -3.2746114 20.95854922 -4.625 17.3125 C-5.46151407 12.15399655 -5.46869232 7.67752229 -3 3 C-1.375 1.1875 -1.375 1.1875 0 0 Z " fill="#E06653" transform="translate(349,334)"/>
<path d="M0 0 C4.82360189 -0.19294408 8.49646738 0.24252386 13 2 C13 2.66 13 3.32 13 4 C13.66 4.33 14.32 4.66 15 5 C11.30458414 5.95024979 8.69541586 5.95024979 5 5 C5 7.31 5 9.62 5 12 C7.91652174 12.16681109 7.91652174 12.16681109 11 12 C13.1385485 9.8614515 13.42655063 8.86724686 14 6 C15.32 6.33 16.64 6.66 18 7 C17.67 8.98 17.34 10.96 17 13 C16.34 13 15.68 13 15 13 C15 13.66 15 14.32 15 15 C12.29120665 16.35439668 9.99066732 16.06501451 7 16 C6.34 18.64 5.68 21.28 5 24 C3.68 24 2.36 24 1 24 C0.20318916 15.97497656 -0.12867289 8.06350113 0 0 Z " fill="#E44D34" transform="translate(263,333)"/>
<path d="M0 0 C1.2065625 0.0309375 1.2065625 0.0309375 2.4375 0.0625 C2.7675 1.7125 3.0975 3.3625 3.4375 5.0625 C5.0875 5.3925 6.7375 5.7225 8.4375 6.0625 C8.4375 7.7125 8.4375 9.3625 8.4375 11.0625 C6.7875 11.3925 5.1375 11.7225 3.4375 12.0625 C3.1075 13.7125 2.7775 15.3625 2.4375 17.0625 C0.4575 17.0625 -1.5225 17.0625 -3.5625 17.0625 C-3.8925 15.4125 -4.2225 13.7625 -4.5625 12.0625 C-6.2125 11.7325 -7.8625 11.4025 -9.5625 11.0625 C-9.5625 9.4125 -9.5625 7.7625 -9.5625 6.0625 C-7.9125 5.7325 -6.2625 5.4025 -4.5625 5.0625 C-4.418125 4.423125 -4.27375 3.78375 -4.125 3.125 C-3.30589691 0.12162199 -3.19313651 0.07788138 0 0 Z " fill="#E74C37" transform="translate(382.5625,339.9375)"/>
<path d="M0 0 C0.77085937 -0.01417969 1.54171875 -0.02835937 2.3359375 -0.04296875 C4.88077673 0.21325226 6.46673306 0.83142077 8.625 2.1875 C9.5 4.125 9.5 4.125 9.625 6.1875 C8.635 7.6725 8.635 7.6725 7.625 9.1875 C7.955 9.8475 8.285 10.5075 8.625 11.1875 C7.99851563 11.21328125 7.37203125 11.2390625 6.7265625 11.265625 C5.90929687 11.32234375 5.09203125 11.3790625 4.25 11.4375 C3.43789062 11.48390625 2.62578125 11.5303125 1.7890625 11.578125 C-0.56338927 11.9797092 -0.56338927 11.9797092 -1.6640625 14.234375 C-1.89867187 14.87890625 -2.13328125 15.5234375 -2.375 16.1875 C-2.375 14.5375 -2.375 12.8875 -2.375 11.1875 C-0.725 10.5275 0.925 9.8675 2.625 9.1875 C0.29428121 8.76879447 0.29428121 8.76879447 -2.375 9.1875 C-4.71130748 11.58609044 -4.71130748 11.58609044 -6.375 14.1875 C-6.045 11.2175 -5.715 8.2475 -5.375 5.1875 C-6.365 5.8475 -7.355 6.5075 -8.375 7.1875 C-9.365 6.8575 -10.355 6.5275 -11.375 6.1875 C-5.38977156 0.04476554 -5.38977156 0.04476554 0 0 Z " fill="#E3887A" transform="translate(161.375,331.8125)"/>
<path d="M0 0 C0.33 0 0.66 0 1 0 C1 2.31 1 4.62 1 7 C5.60815035 7.02478935 10.21626153 7.0429023 14.82446289 7.05493164 C16.39087602 7.05994856 17.9572845 7.06676362 19.52368164 7.07543945 C21.78012239 7.08762094 24.03650102 7.09325481 26.29296875 7.09765625 C26.98899704 7.10281754 27.68502533 7.10797882 28.40214539 7.11329651 C32.06470152 7.11371546 35.43868858 6.87148095 39 6 C39.33 4.02 39.66 2.04 40 0 C43.44517108 4.19412131 44.14140424 7.38451164 44.0625 12.75 C44.05347656 13.54921875 44.04445313 14.3484375 44.03515625 15.171875 C44.02355469 15.77515625 44.01195312 16.3784375 44 17 C41.52821431 15.81944564 39.53030418 14.65045892 37.3125 13 C29.35883269 8.19778577 20.47326631 8.74498897 11.4375 8.875 C9.63829102 8.88853516 9.63829102 8.88853516 7.80273438 8.90234375 C4.86827691 8.92572588 1.93424766 8.9584972 -1 9 C-2.60031344 5.79937313 -1.03173691 3.27728194 0 0 Z " fill="#DE6B59" transform="translate(275,246)"/>
<path d="M0 0 C-1 3 -1 3 -4 5 C-3.01 5.66 -2.02 6.32 -1 7 C-1.33 7.66 -1.66 8.32 -2 9 C6.25 9 14.5 9 23 9 C23 9.33 23 9.66 23 10 C7.94197344 12.86819554 -5.4691041 10.76544795 -19 4 C-19 3.34 -19 2.68 -19 2 C-15.65395309 0.02462291 -12.78986003 -0.3963055 -8.9375 -0.6875 C-7.37322266 -0.81705078 -7.37322266 -0.81705078 -5.77734375 -0.94921875 C-3 -1 -3 -1 0 0 Z " fill="#DE7869" transform="translate(258,302)"/>
<path d="M0 0 C1.8125 0.125 1.8125 0.125 4 1 C5.875 3.75 5.875 3.75 7 7 C6.1875 9.875 6.1875 9.875 5 12 C5.99 11.67 6.98 11.34 8 11 C7.67 12.32 7.34 13.64 7 15 C6.34 15 5.68 15 5 15 C5 15.66 5 16.32 5 17 C2.03 17 -0.94 17 -4 17 C-4 17.66 -4 18.32 -4 19 C-5.32 19.33 -6.64 19.66 -8 20 C-7.67 17.69 -7.34 15.38 -7 13 C-6.01 13 -5.02 13 -4 13 C-4.33 12.01 -4.66 11.02 -5 10 C-3.625 8.5 -3.625 8.5 -2 7 C-1.34 7 -0.68 7 0 7 C0 4.69 0 2.38 0 0 Z " fill="#E44D36" transform="translate(243,334)"/>
<path d="M0 0 C1.98 0 3.96 0 6 0 C6.05425226 2.39614126 6.09379027 4.79103853 6.125 7.1875 C6.14175781 7.86103516 6.15851563 8.53457031 6.17578125 9.22851562 C6.22386121 14.15671149 5.46199199 17.64456846 2.875 21.8125 C-0.24905829 23.79107025 -3.36764407 23.17864046 -7 23 C-7.66 21.35 -8.32 19.7 -9 18 C-6.69 18.66 -4.38 19.32 -2 20 C-1.13580777 17.40742331 -0.82419068 15.65962293 -0.68359375 12.98828125 C-0.64169922 12.23095703 -0.59980469 11.47363281 -0.55664062 10.69335938 C-0.51732422 9.90767578 -0.47800781 9.12199219 -0.4375 8.3125 C-0.39431641 7.51521484 -0.35113281 6.71792969 -0.30664062 5.89648438 C-0.20072632 3.93118553 -0.09987449 1.96561504 0 0 Z " fill="#E05038" transform="translate(192,334)"/>
<path d="M0 0 C1.3125 2.5625 1.3125 2.5625 2 5 C1.34 5 0.68 5 0 5 C-0.33 5.66 -0.66 6.32 -1 7 C-2.65391846 7.39171753 -4.32345271 7.72057545 -6 8 C-6.99 8.33 -7.98 8.66 -9 9 C-9.33 11.97 -9.66 14.94 -10 18 C-11.32 17.34 -12.64 16.68 -14 16 C-14.08133791 14.08404032 -14.13934367 12.16708068 -14.1875 10.25 C-14.22230469 9.18265625 -14.25710938 8.1153125 -14.29296875 7.015625 C-13.96677556 3.65800972 -13.36876245 2.35766755 -11 0 C-7.15368771 -1.0870013 -3.76785968 -1.46527876 0 0 Z " fill="#DE5F4D" transform="translate(330,334)"/>
<path d="M0 0 C6.6 0 13.2 0 20 0 C20.33 0.99 20.66 1.98 21 3 C16.545 3.495 16.545 3.495 12 4 C12 10.27 12 16.54 12 23 C11.01 22.67 10.02 22.34 9 22 C9 16.06 9 10.12 9 4 C6.03 4 3.06 4 0 4 C0 2.68 0 1.36 0 0 Z " fill="#E24E37" transform="translate(206,334)"/>
<path d="M0 0 C1.78409802 3.06246747 2.22880021 5.22079273 2.125 8.75 C2.10695312 9.54921875 2.08890625 10.3484375 2.0703125 11.171875 C2.04710937 11.77515625 2.02390625 12.3784375 2 13 C3.98 12.67 5.96 12.34 8 12 C8.33 12.66 8.66 13.32 9 14 C11.02463255 14.65213292 11.02463255 14.65213292 13 15 C13 15.99 13 16.98 13 18 C13.99 17.34 14.98 16.68 16 16 C17.32 16 18.64 16 20 16 C20.33 12.04 20.66 8.08 21 4 C21.66 4 22.32 4 23 4 C23.34434161 8.0555789 23.50579319 11.95365451 23 16 C19.97547796 19.32697425 17.36375146 20.19789413 13 20.5 C7.89540679 20.22671394 4.67433334 17.73206897 1.1875 14.125 C-1.43969448 9.42370462 -1.09916681 5.1294451 0 0 Z " fill="#DE654E" transform="translate(149,339)"/>
<path d="M0 0 C1.02802734 -0.01224609 2.05605469 -0.02449219 3.11523438 -0.03710938 C4.58766602 -0.04000977 4.58766602 -0.04000977 6.08984375 -0.04296875 C6.99468506 -0.04707764 7.89952637 -0.05118652 8.83178711 -0.05541992 C11.0625 0.1875 11.0625 0.1875 13.0625 2.1875 C12.6875 4.8125 12.6875 4.8125 12.0625 7.1875 C10.0825 7.1875 8.1025 7.1875 6.0625 7.1875 C6.0625 6.8575 6.0625 6.5275 6.0625 6.1875 C7.7125 6.1875 9.3625 6.1875 11.0625 6.1875 C10.7325 5.1975 10.4025 4.2075 10.0625 3.1875 C3.4625 2.8575 -3.1375 2.5275 -9.9375 2.1875 C-9.9375 3.5075 -9.9375 4.8275 -9.9375 6.1875 C-7.6275 6.1875 -5.3175 6.1875 -2.9375 6.1875 C-2.9375 12.4575 -2.9375 18.7275 -2.9375 25.1875 C-3.2675 25.1875 -3.5975 25.1875 -3.9375 25.1875 C-3.9375 19.2475 -3.9375 13.3075 -3.9375 7.1875 C-6.2475 7.1875 -8.5575 7.1875 -10.9375 7.1875 C-11.9375 6.1875 -11.9375 6.1875 -12.0625 3.6875 C-11.77203928 -2.12171441 -4.51469031 0.00281992 0 0 Z " fill="#E79E94" transform="translate(215.9375,331.8125)"/>
<path d="M0 0 C1.13948468 3.31407375 1.00097295 6.42168657 0.88452148 9.89013672 C0.56256086 20.16013503 2.24387529 29.14879119 5 39 C5.33827477 40.33208824 5.674729 41.66467694 6 43 C6.66 43 7.32 43 8 43 C7.67 44.32 7.34 45.64 7 47 C-1.62100413 31.76413736 -4.77363098 17.30441231 0 0 Z " fill="#DF867B" transform="translate(217,244)"/>
<path d="M0 0 C1.65 0 3.3 0 5 0 C6.50156874 3.00313748 6.09281204 5.79067522 6.0625 9.125 C6.05347656 10.40632813 6.04445312 11.68765625 6.03515625 13.0078125 C6.02355469 13.99523437 6.01195312 14.98265625 6 16 C5.67 16 5.34 16 5 16 C4.67 13.36 4.34 10.72 4 8 C3.01 8.33 2.02 8.66 1 9 C0.85024761 16.05651252 0.85024761 16.05651252 2 23 C-0.20745842 21.27242385 -0.95309596 20.17482416 -1.6875 17.4375 C-2.8312092 4.85669879 -2.8312092 4.85669879 0 0 Z " fill="#E27F73" transform="translate(178,332)"/>
<path d="M0 0 C6.875 0.875 6.875 0.875 8 2 C10.68862664 2.39993686 13.36352217 2.75134543 16.0625 3.0625 C16.82111328 3.15337891 17.57972656 3.24425781 18.36132812 3.33789062 C20.2404301 3.5624374 22.12016095 3.78170978 24 4 C20.71632273 6.0007522 18.6540196 6.1326295 14.875 5.625 C13.57175781 5.45871094 13.57175781 5.45871094 12.2421875 5.2890625 C11.50226563 5.19367188 10.76234375 5.09828125 10 5 C9.34 5 8.68 5 8 5 C7.67 6.32 7.34 7.64 7 9 C4.36 9 1.72 9 -1 9 C-0.7525 8.1028125 -0.7525 8.1028125 -0.5 7.1875 C0.1114124 4.88655664 0.1114124 4.88655664 0 2 C0 1.34 0 0.68 0 0 Z " fill="#E04F36" transform="translate(252,290)"/>
<path d="M0 0 C3.63 0.33 7.26 0.66 11 1 C11 2.32 11 3.64 11 5 C11.33 5.66 11.66 6.32 12 7 C11.34 7 10.68 7 10 7 C10 7.66 10 8.32 10 9 C9.34 9 8.68 9 8 9 C8 9.99 8 10.98 8 12 C6.125 12.625 6.125 12.625 4 13 C2 11 2 11 1 8 C1.66 8 2.32 8 3 8 C2.814375 7.401875 2.62875 6.80375 2.4375 6.1875 C2 4 2 4 3 1 C2.01 0.67 1.02 0.34 0 0 Z " fill="#E34D35" transform="translate(271,208)"/>
<path d="M0 0 C3.73487777 0.4979837 5.81237635 0.87491756 9 3 C9 3.66 9 4.32 9 5 C7.49705948 5.95938693 5.94499493 6.84229624 4.375 7.6875 C-0.56295973 10.52822968 -3.56861627 13.48502141 -7 18 C-7.58984375 16.140625 -7.58984375 16.140625 -8 14 C-6.5625 11.75 -6.5625 11.75 -5 10 C-4.34 10.33 -3.68 10.66 -3 11 C-3 10.01 -3 9.02 -3 8 C-2.34 8 -1.68 8 -1 8 C-0.67 7.01 -0.34 6.02 0 5 C-0.66 4.34 -1.32 3.68 -2 3 C-1.34 2.01 -0.68 1.02 0 0 Z " fill="#DD776C" transform="translate(282,209)"/>
<path d="M0 0 C4.875 0.875 4.875 0.875 6 2 C6.15461551 4.41140721 6.23170241 6.77450571 6.25 9.1875 C6.27578125 10.50105469 6.3015625 11.81460937 6.328125 13.16796875 C5.88495275 18.34358754 4.30823482 21.57963077 0.8125 25.375 C-3.20155947 27.69423436 -5.39117586 27.58524751 -10 27 C-12.5 25 -12.5 25 -14 23 C-13.01 23.2165625 -13.01 23.2165625 -12 23.4375 C-8.34400449 24.12299916 -4.69377805 24.56175515 -1 25 C-0.67 24.01 -0.34 23.02 0 22 C0.66 21.67 1.32 21.34 2 21 C3.39469115 17.26850844 3.33526844 13.19116371 3.5625 9.25 C3.60568359 8.55261719 3.64886719 7.85523438 3.69335938 7.13671875 C3.79889596 5.42468078 3.8998991 3.71236439 4 2 C2.35 2 0.7 2 -1 2 C-0.67 1.34 -0.34 0.68 0 0 Z " fill="#DF9482" transform="translate(194,332)"/>
<path d="M0 0 C0.33 1.32 0.66 2.64 1 4 C-0.65 4.33 -2.3 4.66 -4 5 C-4 5.99 -4 6.98 -4 8 C-3.21625 7.938125 -2.4325 7.87625 -1.625 7.8125 C-0.325625 7.9053125 -0.325625 7.9053125 1 8 C1.99 9.485 1.99 9.485 3 11 C3.99 11.33 4.98 11.66 6 12 C6.66 10.68 7.32 9.36 8 8 C8.99 8 9.98 8 11 8 C11 7.01 11 6.02 11 5 C10.01 5 9.02 5 8 5 C8 4.34 8 3.68 8 3 C9.65 3.33 11.3 3.66 13 4 C13 5.65 13 7.3 13 9 C11.35 9.33 9.7 9.66 8 10 C7.67 11.65 7.34 13.3 7 15 C5.02 15 3.04 15 1 15 C0.67 13.35 0.34 11.7 0 10 C-1.65 9.67 -3.3 9.34 -5 9 C-5 7.35 -5 5.7 -5 4 C-3.35 3.67 -1.7 3.34 0 3 C0 2.01 0 1.02 0 0 Z " fill="#E29486" transform="translate(378,342)"/>
<path d="M0 0 C0.66 0.33 1.32 0.66 2 1 C2.62805304 10.14166085 2.62805304 10.14166085 0.125 13.5625 C-3.82843296 16.23688112 -7.29575321 16.64585206 -12 16 C-17.66176471 13.01470588 -17.66176471 13.01470588 -19 9 C-18.01 9 -17.02 9 -16 9 C-15.67 10.32 -15.34 11.64 -15 13 C-12.36 13 -9.72 13 -7 13 C-6.67 12.01 -6.34 11.02 -6 10 C-5.01 9.67 -4.02 9.34 -3 9 C-2.01 9.99 -1.02 10.98 0 12 C0 8.04 0 4.08 0 0 Z " fill="#DF7D6E" transform="translate(308,343)"/>
<path d="M0 0 C0.66 0.66 1.32 1.32 2 2 C-1.75 4 -1.75 4 -4 4 C-6.11629529 4.6830333 -6.11629529 4.6830333 -8 6 C-8.66179847 7.98045559 -8.66179847 7.98045559 -9 10 C-9.66 10.66 -10.32 11.32 -11 12 C-10.01 12.33 -9.02 12.66 -8 13 C-9.32 13.33 -10.64 13.66 -12 14 C-11.67 11.03 -11.34 8.06 -11 5 C-10.34 5 -9.68 5 -9 5 C-9 4.34 -9 3.68 -9 3 C-13.455 3.495 -13.455 3.495 -18 4 C-17 2 -17 2 -14.0625 0.875 C-9.48612006 -0.32131509 -4.69323187 -0.5834365 0 0 Z " fill="#E26451" transform="translate(304,218)"/>
<path d="M0 0 C3 1 3 1 4.375 3.75 C5 7 5 7 3.625 9.875 C3.08875 10.57625 2.5525 11.2775 2 12 C2.66 12.33 3.32 12.66 4 13 C3.34 14.32 2.68 15.64 2 17 C2 16.34 2 15.68 2 15 C0.8553125 15.7115625 0.8553125 15.7115625 -0.3125 16.4375 C-3 18 -3 18 -6 19 C-6 19.66 -6 20.32 -6 21 C-6.99 21 -7.98 21 -9 21 C-9 20.34 -9 19.68 -9 19 C-8.34 19 -7.68 19 -7 19 C-6.7525 18.4225 -6.505 17.845 -6.25 17.25 C-4.82800599 14.69041079 -3.09561473 13.03012677 -1 11 C1.16617415 7.75073878 1.21335669 7.4014758 0.625 3.8125 C0.41875 2.554375 0.2125 1.29625 0 0 Z " fill="#E25E49" transform="translate(312,265)"/>
<path d="M0 0 C2.9375 0.875 2.9375 0.875 4.3125 2.9375 C4.51875 3.576875 4.725 4.21625 4.9375 4.875 C3.6875 6.375 3.6875 6.375 1.9375 7.875 C0.6175 7.875 -0.7025 7.875 -2.0625 7.875 C-2.0625 8.535 -2.0625 9.195 -2.0625 9.875 C-2.7225 9.875 -3.3825 9.875 -4.0625 9.875 C-4.7225 11.525 -5.3825 13.175 -6.0625 14.875 C-8.53050047 13.72326645 -10.11033565 12.82716435 -12.0625 10.875 C-10.99 10.42125 -9.9175 9.9675 -8.8125 9.5 C-6.18187683 8.37411463 -3.60249604 7.19579794 -1.0625 5.875 C-1.0625 4.885 -1.0625 3.895 -1.0625 2.875 C-2.7125 2.545 -4.3625 2.215 -6.0625 1.875 C-3.0625 -0.125 -3.0625 -0.125 0 0 Z " fill="#E27664" transform="translate(288.0625,279.125)"/>
<path d="M0 0 C0.66 1.65 1.32 3.3 2 5 C-1.63 5 -5.26 5 -9 5 C-9 5.99 -9 6.98 -9 8 C-9.99 8 -10.98 8 -12 8 C-12.33 8.99 -12.66 9.98 -13 11 C-12.74438677 8.6568787 -12.40729228 6.32156597 -12 4 C-11.34 3.67 -10.68 3.34 -10 3 C-9.67 2.01 -9.34 1.02 -9 0 C-5.84566931 -1.35185601 -3.19236524 -1.17613456 0 0 Z " fill="#E44C36" transform="translate(330,334)"/>
<path d="M0 0 C3.42726348 4.56968464 3.42726348 4.56968464 3 8.375 C2.27515816 13.26365554 0.50382709 15.57959737 -3 19 C-6.6053389 21.40355927 -9.79361025 21.75085268 -14 21 C-15.32 20.01 -16.64 19.02 -18 18 C-14.04 18.33 -10.08 18.66 -6 19 C-6 18.34 -6 17.68 -6 17 C-5.01 17 -4.02 17 -3 17 C-3 15.68 -3 14.36 -3 13 C-2.01 13 -1.02 13 0 13 C0 8.71 0 4.42 0 0 Z " fill="#DE8478" transform="translate(367,338)"/>
<path d="M0 0 C3.38529516 1.89906802 4.2195766 3.85637093 5.5625 7.4375 C5.2325 8.0975 4.9025 8.7575 4.5625 9.4375 C2.03661298 7.07457344 0.67429163 5.77287489 -0.4375 2.4375 C-1.4275 2.1075 -2.4175 1.7775 -3.4375 1.4375 C-3.4375 3.7475 -3.4375 6.0575 -3.4375 8.4375 C-4.7575 8.7675 -6.0775 9.0975 -7.4375 9.4375 C-7.4375 11.0875 -7.4375 12.7375 -7.4375 14.4375 C-8.4275 14.4375 -9.4175 14.4375 -10.4375 14.4375 C-7.40524194 4.56653226 -7.40524194 4.56653226 -4.4375 0.4375 C-2.4375 -0.5625 -2.4375 -0.5625 0 0 Z " fill="#DD7861" transform="translate(246.4375,332.5625)"/>
<path d="M0 0 C0.66 0 1.32 0 2 0 C1.96519531 0.89460937 1.93039063 1.78921875 1.89453125 2.7109375 C1.67292598 12.6093062 2.48911487 20.60246075 8 29 C8 29.66 8 30.32 8 31 C8.66 31 9.32 31 10 31 C10.33 31.99 10.66 32.98 11 34 C10.01 34 9.02 34 8 34 C7.731875 33.401875 7.46375 32.80375 7.1875 32.1875 C6.13675892 29.98893008 6.13675892 29.98893008 4.53051758 28.5859375 C0.05440355 23.94774373 -0.33454639 17.63817726 -0.26367188 11.54296875 C-0.23853516 10.70378906 -0.21339844 9.86460937 -0.1875 9 C-0.17396484 8.12988281 -0.16042969 7.25976562 -0.14648438 6.36328125 C-0.11151678 4.24191373 -0.0577253 2.12087026 0 0 Z " fill="#DA7363" transform="translate(235,250)"/>
<path d="M0 0 C0.33 0 0.66 0 1 0 C1.03738281 0.69867188 1.07476562 1.39734375 1.11328125 2.1171875 C1.17902344 3.02726562 1.24476563 3.93734375 1.3125 4.875 C1.37050781 5.77992188 1.42851562 6.68484375 1.48828125 7.6171875 C1.7882039 10.36221601 1.7882039 10.36221601 5 12 C5.33 9.03 5.66 6.06 6 3 C6.33 3 6.66 3 7 3 C7.12375 4.134375 7.2475 5.26875 7.375 6.4375 C7.58125 7.613125 7.7875 8.78875 8 10 C8.66 10.33 9.32 10.66 10 11 C9.01 11 8.02 11 7 11 C7 11.66 7 12.32 7 13 C6.34 13 5.68 13 5 13 C5 13.99 5 14.98 5 16 C6.32 16.33 7.64 16.66 9 17 C8.01 17.33 7.02 17.66 6 18 C-0.87118321 11.49045802 -0.87118321 11.49045802 -1.1875 5.375 C-1 2 -1 2 0 0 Z " fill="#E47968" transform="translate(315,340)"/>
<path d="M0 0 C0.99 0 1.98 0 3 0 C3.33 1.32 3.66 2.64 4 4 C4.66 4 5.32 4 6 4 C6.33 4.66 6.66 5.32 7 6 C9.11846285 6.68729254 9.11846285 6.68729254 11.5625 7.125 C12.80193359 7.37636719 12.80193359 7.37636719 14.06640625 7.6328125 C14.70449219 7.75398438 15.34257812 7.87515625 16 8 C16 7.34 16 6.68 16 6 C16.99 6.33 17.98 6.66 19 7 C18.67 7.99 18.34 8.98 18 10 C12.48058991 11.44673945 8.11441458 10.40139179 3 8 C1.4375 5.5 1.4375 5.5 1 3 C0.67 2.01 0.34 1.02 0 0 Z " fill="#E17665" transform="translate(225,291)"/>
<path d="M0 0 C0.99 0.33 1.98 0.66 3 1 C2.01 2.485 2.01 2.485 1 4 C0.34 4 -0.32 4 -1 4 C-2.04559253 10.58723293 -1.83292414 15.59233959 0 22 C-3.75159236 19.57961783 -3.75159236 19.57961783 -4.75 17.25 C-5.32574222 12.06832001 -5.47629118 7.69192013 -3 3 C-1.375 1.1875 -1.375 1.1875 0 0 Z " fill="#DC705F" transform="translate(349,334)"/>
<path d="M0 0 C0.33 0 0.66 0 1 0 C1 2.31 1 4.62 1 7 C10.57 7 20.14 7 30 7 C30 7.33 30 7.66 30 8 C19.66061606 8.60565429 9.3625183 9.18615302 -1 9 C-2.60031344 5.79937313 -1.03173691 3.27728194 0 0 Z " fill="#D36150" transform="translate(275,246)"/>
<path d="M0 0 C0 1.65 0 3.3 0 5 C-3.04386724 5.08226668 -5.07175348 4.97608217 -8 4 C-8.99 4.33 -9.98 4.66 -11 5 C-13.1875 4.0625 -13.1875 4.0625 -15 3 C-10.27805833 -0.77755334 -5.74071928 -0.30096975 0 0 Z " fill="#E04F37" transform="translate(307,334)"/>
<path d="M0 0 C0.99 0 1.98 0 3 0 C3.33 3.63 3.66 7.26 4 11 C2.35 11.66 0.7 12.32 -1 13 C-1.02708567 11.39592672 -1.04643483 9.7917215 -1.0625 8.1875 C-1.07410156 7.29417969 -1.08570313 6.40085937 -1.09765625 5.48046875 C-1 3 -1 3 0 0 Z " fill="#E44E38" transform="translate(334,337)"/>
<path d="M0 0 C2.70834687 -0.30452383 5.18415406 -0.42005327 7.89453125 -0.3984375 C8.6789006 -0.40130768 9.46326996 -0.40417786 10.27140808 -0.40713501 C11.93330607 -0.40917847 13.59522796 -0.40362892 15.25708008 -0.39111328 C17.79238307 -0.37512685 20.32607632 -0.39091803 22.86132812 -0.41015625 C24.47656601 -0.40817261 26.09180289 -0.40432642 27.70703125 -0.3984375 C28.46240677 -0.40451019 29.21778229 -0.41058289 29.99604797 -0.4168396 C34.50934808 -0.35705657 37.36250487 0.29238073 41 3 C38.50907189 4.24546405 37.58919267 3.7767578 35 3 C35 2.34 35 1.68 35 1 C30.37336673 1.11844608 25.74693958 1.24270772 21.12060547 1.37231445 C19.54740626 1.41557338 17.97416283 1.45725474 16.40087891 1.49731445 C14.13690885 1.55523662 11.87315949 1.61886714 9.609375 1.68359375 C8.90818542 1.70030624 8.20699585 1.71701874 7.48455811 1.73423767 C4.19766179 1.83351022 1.14857995 2.00812672 -2 3 C-1.34 2.01 -0.68 1.02 0 0 Z " fill="#CE7E6D" transform="translate(269,259)"/>
<path d="M0 0 C0.99 0 1.98 0 3 0 C3 0.66 3 1.32 3 2 C4.98 1.67 6.96 1.34 9 1 C9 2.65 9 4.3 9 6 C5.37 6 1.74 6 -2 6 C-1 1 -1 1 0 0 Z " fill="#E14F39" transform="translate(160,333)"/>
<path d="M0 0 C0.5534764 2.07553648 1 3.84365964 1 6 C2.65 6 4.3 6 6 6 C5.01 7.98 4.02 9.96 3 12 C1.35 11.67 -0.3 11.34 -2 11 C-2.95465783 8.83032311 -3.14401212 7.43671207 -2.3984375 5.17578125 C-1.64129615 3.4315257 -0.82390802 1.71372869 0 0 Z " fill="#DF6555" transform="translate(235,347)"/>
<path d="M0 0 C3.46679688 0.04882812 3.46679688 0.04882812 6.93359375 0.09765625 C6.93359375 3.39765625 6.93359375 6.69765625 6.93359375 10.09765625 C6.60359375 10.09765625 6.27359375 10.09765625 5.93359375 10.09765625 C5.93359375 7.45765625 5.93359375 4.81765625 5.93359375 2.09765625 C2.92265755 4.10494705 2.30342878 4.93649849 0.93359375 8.09765625 C0.93359375 7.43765625 0.93359375 6.77765625 0.93359375 6.09765625 C-0.38640625 6.09765625 -1.70640625 6.09765625 -3.06640625 6.09765625 C-3.10912725 4.4315372 -3.10704457 2.7638274 -3.06640625 1.09765625 C-2.06640625 0.09765625 -2.06640625 0.09765625 0 0 Z " fill="#DD5D4B" transform="translate(163.06640625,342.90234375)"/>
<path d="M0 0 C0.7940625 -0.01417969 1.588125 -0.02835937 2.40625 -0.04296875 C4.5 0.1875 4.5 0.1875 6.5 2.1875 C4.85 2.5175 3.2 2.8475 1.5 3.1875 C1.5 2.5275 1.5 1.8675 1.5 1.1875 C-1.12187494 2.23624998 -2.29371361 2.83681313 -3.75 5.3125 C-3.9975 5.93125 -4.245 6.55 -4.5 7.1875 C-4.83 6.5275 -5.16 5.8675 -5.5 5.1875 C-6.49 5.8475 -7.48 6.5075 -8.5 7.1875 C-9.49 6.8575 -10.48 6.5275 -11.5 6.1875 C-5.51476882 0.04476273 -5.51476882 0.04476273 0 0 Z " fill="#DC6554" transform="translate(161.5,331.8125)"/>
<path d="M0 0 C0.66 0 1.32 0 2 0 C0.30279551 6.32594401 -3.07998786 11.65726929 -8 16 C-8.66 16 -9.32 16 -10 16 C-10 14.68 -10 13.36 -10 12 C-9.01 12 -8.02 12 -7 12 C-7 10.68 -7 9.36 -7 8 C-6.01 8 -5.02 8 -4 8 C-4 7.01 -4 6.02 -4 5 C-3.34 5 -2.68 5 -2 5 C-2.33 4.01 -2.66 3.02 -3 2 C-2.01 2 -1.02 2 0 2 C0 1.34 0 0.68 0 0 Z " fill="#DF7666" transform="translate(311,284)"/>
<path d="M0 0 C0.99 0 1.98 0 3 0 C3 0.66 3 1.32 3 2 C4.65 2.33 6.3 2.66 8 3 C7.67 4.32 7.34 5.64 7 7 C1.375 7.25 1.375 7.25 -2 5 C-2 4.01 -2 3.02 -2 2 C-1.34 2 -0.68 2 0 2 C0 1.34 0 0.68 0 0 Z " fill="#E04E37" transform="translate(322,351)"/>
<path d="M0 0 C-0.33 1.98 -0.66 3.96 -1 6 C-1.99 6 -2.98 6 -4 6 C-3.505 6.78375 -3.01 7.5675 -2.5 8.375 C-1 11 -1 11 -1 13 C-2.32 13 -3.64 13 -5 13 C-5.5745952 9.26513121 -6 5.78706732 -6 2 C-2.25 0 -2.25 0 0 0 Z " fill="#E34E35" transform="translate(156,337)"/>
<path d="M0 0 C1.91712153 3.38608478 2.73257783 6.71103595 3.5625 10.5 C3.81128906 11.6240625 4.06007812 12.748125 4.31640625 13.90625 C4.54199219 14.9271875 4.76757812 15.948125 5 17 C5.32721134 18.33484892 5.65746356 19.66900125 6 21 C6.66 21 7.32 21 8 21 C7.67 22.32 7.34 23.64 7 25 C6.01515892 23.25318707 5.03733813 21.5024149 4.0625 19.75 C3.51722656 18.77546875 2.97195312 17.8009375 2.41015625 16.796875 C0.29406237 12.59985778 -0.12405413 9.42811362 -0.0625 4.75 C-0.05347656 3.85796875 -0.04445312 2.9659375 -0.03515625 2.046875 C-0.02355469 1.37140625 -0.01195312 0.6959375 0 0 Z " fill="#DB7364" transform="translate(217,266)"/>
<path d="M0 0 C0.33 0.66 0.66 1.32 1 2 C1.66386719 1.83628906 2.32773438 1.67257813 3.01171875 1.50390625 C6.62883337 0.89396143 10.15860708 0.89204487 13.8125 0.9375 C14.50537109 0.94201172 15.19824219 0.94652344 15.91210938 0.95117188 C17.60811068 0.96286844 19.30406703 0.98080076 21 1 C21 1.33 21 1.66 21 2 C20.10539062 2.02578125 19.21078125 2.0515625 18.2890625 2.078125 C10.42918313 2.4468187 4.06985575 3.49765211 -3 7 C-2.25 2.25 -2.25 2.25 0 0 Z " fill="#E58B7C" transform="translate(253,226)"/>
<path d="M0 0 C0 1.32 0 2.64 0 4 C-0.66 4 -1.32 4 -2 4 C-2 4.66 -2 5.32 -2 6 C-4.64 6 -7.28 6 -10 6 C-9.875 4.125 -9.875 4.125 -9 2 C-5.82254537 0.61849799 -3.46877176 0 0 0 Z " fill="#E74D34" transform="translate(363,351)"/>
<path d="M0 0 C4.82360189 -0.19294408 8.49646738 0.24252386 13 2 C13 2.66 13 3.32 13 4 C13.66 4.33 14.32 4.66 15 5 C13.35 5.33 11.7 5.66 10 6 C10.33 4.68 10.66 3.36 11 2 C7.7 2 4.4 2 1 2 C1.20625 2.9075 1.4125 3.815 1.625 4.75 C2 8 2 8 0 12 C0 8.04 0 4.08 0 0 Z " fill="#D8543F" transform="translate(263,333)"/>
<path d="M0 0 C3.73487777 0.4979837 5.81237635 0.87491756 9 3 C9 3.66 9 4.32 9 5 C3.62694301 5.96891192 3.62694301 5.96891192 1 6 C-1 4.5625 -1 4.5625 -2 3 C-1.34 2.01 -0.68 1.02 0 0 Z " fill="#E06557" transform="translate(282,209)"/>
<path d="M0 0 C2.64 0 5.28 0 8 0 C8 3.96 8 7.92 8 12 C7.67 12 7.34 12 7 12 C7 8.7 7 5.4 7 2 C6.01 2 5.02 2 4 2 C4 2.66 4 3.32 4 4 C2.35 4.33 0.7 4.66 -1 5 C-0.67 3.35 -0.34 1.7 0 0 Z " fill="#DA513C" transform="translate(300,343)"/>
<path d="M0 0 C2.5 0.125 2.5 0.125 3.5 1.125 C3.54063832 2.79117115 3.542721 4.45888095 3.5 6.125 C1.19 6.125 -1.12 6.125 -3.5 6.125 C-3.542721 4.45888095 -3.54063832 2.79117115 -3.5 1.125 C-2.5 0.125 -2.5 0.125 0 0 Z " fill="#D8533C" transform="translate(382.5,339.875)"/>
<path d="M0 0 C0.66 0.66 1.32 1.32 2 2 C0.02 2.99 0.02 2.99 -2 4 C-2 3.01 -2 2.02 -2 1 C-3.65 1.33 -5.3 1.66 -7 2 C-7.33 2.99 -7.66 3.98 -8 5 C-8.33 4.67 -8.66 4.34 -9 4 C-10.51928038 3.92820036 -12.04167482 3.91607993 -13.5625 3.9375 C-14.80193359 3.95103516 -14.80193359 3.95103516 -16.06640625 3.96484375 C-17.02353516 3.98224609 -17.02353516 3.98224609 -18 4 C-17 2 -17 2 -14.0625 0.875 C-9.48612006 -0.32131509 -4.69323187 -0.5834365 0 0 Z " fill="#DF7E6E" transform="translate(304,218)"/>
<path d="M0 0 C0.66 0 1.32 0 2 0 C2.10807131 1.93627769 2.1856225 3.87427756 2.25 5.8125 C2.29640625 6.89144531 2.3428125 7.97039062 2.390625 9.08203125 C2 12 2 12 0.109375 13.88671875 C-2 15 -2 15 -4 15 C-4.33 14.01 -4.66 13.02 -5 12 C-3.68 12 -2.36 12 -1 12 C-0.67 8.04 -0.34 4.08 0 0 Z " fill="#E19183" transform="translate(170,343)"/>
<path d="M0 0 C2.97 0.33 5.94 0.66 9 1 C8.67 1.99 8.34 2.98 8 4 C3.25 4.125 3.25 4.125 1 3 C-1.37402501 2.92883618 -3.75000677 2.91590915 -6.125 2.9375 C-7.40632812 2.94652344 -8.68765625 2.95554687 -10.0078125 2.96484375 C-10.99523437 2.97644531 -11.98265625 2.98804688 -13 3 C-13 2.67 -13 2.34 -13 2 C-8.71 2 -4.42 2 0 2 C0 1.34 0 0.68 0 0 Z " fill="#DD5D4A" transform="translate(254,299)"/>
<path d="M0 0 C0.66 0.33 1.32 0.66 2 1 C-1.25227434 4.25227434 -3.41498305 6.3596341 -8.125 6.5625 C-12.30122257 5.95627414 -13.51627701 5.31163065 -16 2 C-15.34 2.144375 -14.68 2.28875 -14 2.4375 C-10.34400449 3.12299916 -6.69377805 3.56175515 -3 4 C-2.67 3.01 -2.34 2.02 -2 1 C-1.34 0.67 -0.68 0.34 0 0 Z " fill="#DD857B" transform="translate(196,353)"/>
<path d="M0 0 C2.39456443 2.39456443 2.75546876 3.65807308 3 7 C1.8125 8.875 1.8125 8.875 0 10 C-2.0625 9.875 -2.0625 9.875 -4 9 C-6 6 -6 6 -6 3 C-5.01 3.33 -4.02 3.66 -3 4 C-3 5.32 -3 6.64 -3 8 C-2.01 8 -1.02 8 0 8 C0 5.36 0 2.72 0 0 Z " fill="#DA7A6E" transform="translate(280,349)"/>
<path d="M0 0 C0.99 0.33 1.98 0.66 3 1 C3 1.66 3 2.32 3 3 C2.34 3 1.68 3 1 3 C1 3.66 1 4.32 1 5 C0.34 5 -0.32 5 -1 5 C-1.268125 5.70125 -1.53625 6.4025 -1.8125 7.125 C-3.0681449 10.1649824 -4.50235123 13.0727774 -6 16 C-6.33 16 -6.66 16 -7 16 C-6.53898164 11.29761275 -5.96823597 7.76737643 -3 4 C-2.01 4 -1.02 4 0 4 C0 2.68 0 1.36 0 0 Z " fill="#DE7B6D" transform="translate(244,234)"/>
<path d="M0 0 C0.75 1.75 0.75 1.75 1 4 C-0.8125 6.25 -0.8125 6.25 -3 8 C-3.66 8 -4.32 8 -5 8 C-5 9.98 -5 11.96 -5 14 C-5.99 14.33 -6.98 14.66 -8 15 C-7.08400261 8.77121774 -4.68908732 4.20400932 0 0 Z " fill="#DE8276" transform="translate(284,222)"/>
<path d="M0 0 C4.3527679 0.43527679 6.38214719 1.64864296 9.75 4.375 C10.08 5.035 10.41 5.695 10.75 6.375 C9.1 6.045 7.45 5.715 5.75 5.375 C5.75 4.715 5.75 4.055 5.75 3.375 C2.12 3.045 -1.51 2.715 -5.25 2.375 C-3.25 0.375 -3.25 0.375 0 0 Z " fill="#DF7A6C" transform="translate(356.25,331.625)"/>
<path d="M0 0 C1 3 1 3 0.0625 5.1875 C-0.4634375 6.0846875 -0.4634375 6.0846875 -1 7 C-1.66 7 -2.32 7 -3 7 C-3.4021875 8.2065625 -3.4021875 8.2065625 -3.8125 9.4375 C-4.4003125 10.7059375 -4.4003125 10.7059375 -5 12 C-5.99 12.33 -6.98 12.66 -8 13 C-6.63589551 7.40717158 -3.84616474 4.08806189 0 0 Z " fill="#DC8171" transform="translate(261,267)"/>
<path d="M0 0 C3.41554054 4.55405405 3.41554054 4.55405405 3.375 8.5 C3.38273437 9.2528125 3.39046875 10.005625 3.3984375 10.78125 C3 13 3 13 0 17 C0 11.39 0 5.78 0 0 Z " fill="#DF8675" transform="translate(337,337)"/>
<path d="M0 0 C3.38529516 1.89906802 4.2195766 3.85637093 5.5625 7.4375 C5.2325 8.0975 4.9025 8.7575 4.5625 9.4375 C2.03661298 7.07457344 0.67429163 5.77287489 -0.4375 2.4375 C-1.4275 2.1075 -2.4175 1.7775 -3.4375 1.4375 C-3.4375 2.0975 -3.4375 2.7575 -3.4375 3.4375 C-4.0975 3.4375 -4.7575 3.4375 -5.4375 3.4375 C-5.1075 2.4475 -4.7775 1.4575 -4.4375 0.4375 C-2.4375 -0.5625 -2.4375 -0.5625 0 0 Z " fill="#DA8A79" transform="translate(246.4375,332.5625)"/>
<path d="M0 0 C3.3 0 6.6 0 10 0 C9.67 1.32 9.34 2.64 9 4 C5.37471432 4.20140476 3.13498292 3.85776765 0 2 C0 1.34 0 0.68 0 0 Z " fill="#DD523A" transform="translate(243,305)"/>
<path d="M0 0 C1.97566188 1.97566188 2.89579072 3.52337094 4.125 6 C4.47820312 6.70125 4.83140625 7.4025 5.1953125 8.125 C6 10 6 10 6 12 C6.66 12 7.32 12 8 12 C8.33 12.99 8.66 13.98 9 15 C8.01 15 7.02 15 6 15 C5.731875 14.401875 5.46375 13.80375 5.1875 13.1875 C4.16482716 10.96605418 4.16482716 10.96605418 2.4375 9.75 C0.06970784 6.86747041 0.29987295 3.65844994 0 0 Z " fill="#E18C80" transform="translate(237,269)"/>
<path d="M0 0 C0.66 1.32 1.32 2.64 2 4 C2.66 4.66 3.32 5.32 4 6 C3.625 8.625 3.625 8.625 3 11 C2.34 11 1.68 11 1 11 C0.67 11.66 0.34 12.32 0 13 C0 8.71 0 4.42 0 0 Z " fill="#D8563F" transform="translate(276,237)"/>
<path d="M0 0 C1.15048828 0.01933594 1.15048828 0.01933594 2.32421875 0.0390625 C4.3125 0.375 4.3125 0.375 6.3125 2.375 C1.0325 3.035 -4.2475 3.695 -9.6875 4.375 C-4.03056569 -0.15054745 -4.03056569 -0.15054745 0 0 Z " fill="#E28379" transform="translate(299.6875,331.625)"/>
<path d="M0 0 C0.33 0.66 0.66 1.32 1 2 C0.34 2 -0.32 2 -1 2 C-1.66 3.65 -2.32 5.3 -3 7 C-5.46800047 5.84826645 -7.04783565 4.95216435 -9 3 C-6.03 2.01 -3.06 1.02 0 0 Z " fill="#E06250" transform="translate(285,287)"/>
<path d="M0 0 C0 1.32 0 2.64 0 4 C-0.99 4 -1.98 4 -3 4 C-3 4.66 -3 5.32 -3 6 C-4.65 6 -6.3 6 -8 6 C-8 5.34 -8 4.68 -8 4 C-3.64705882 0 -3.64705882 0 0 0 Z " fill="#DA5A43" transform="translate(314,280)"/>
<path d="M0 0 C0.99 0.33 1.98 0.66 3 1 C4.375 3.8125 4.375 3.8125 5 7 C3.625 9.375 3.625 9.375 2 11 C0.80712589 7.12315913 0 4.08378077 0 0 Z " fill="#DC7864" transform="translate(312,265)"/>
<path d="M0 0 C0.33 0.99 0.66 1.98 1 3 C0.01 3.33 -0.98 3.66 -2 4 C-2.061875 4.78375 -2.12375 5.5675 -2.1875 6.375 C-2.455625 7.24125 -2.72375 8.1075 -3 9 C-5.5625 10.3125 -5.5625 10.3125 -8 11 C-5.69281189 6.71522208 -3.67033927 3.27708863 0 0 Z " fill="#DF8177" transform="translate(230,222)"/>
<path d="M0 0 C1.78409802 3.06246747 2.22880021 5.22079273 2.125 8.75 C2.10695312 9.54921875 2.08890625 10.3484375 2.0703125 11.171875 C2.04710937 11.77515625 2.02390625 12.3784375 2 13 C2.99 13.33 3.98 13.66 5 14 C4.34 14.66 3.68 15.32 3 16 C0.14911668 12.77726233 -0.65787224 10.27659694 -1 6 C-0.5625 2.625 -0.5625 2.625 0 0 Z " fill="#D97D6F" transform="translate(149,339)"/>
<path d="M0 0 C6.75 -0.125 6.75 -0.125 9 1 C8.67 1.66 8.34 2.32 8 3 C6.02 3 4.04 3 2 3 C1.67 3.99 1.34 4.98 1 6 C0.67 6 0.34 6 0 6 C0 4.02 0 2.04 0 0 Z " fill="#E37064" transform="translate(351,338)"/>
<path d="M0 0 C0 0.66 0 1.32 0 2 C-5.12583611 2.10251672 -9.94997778 2.03590199 -15 1 C-15 0.67 -15 0.34 -15 0 C-13.06325815 -0.19517554 -11.12555991 -0.38087873 -9.1875 -0.5625 C-8.10855469 -0.66691406 -7.02960938 -0.77132813 -5.91796875 -0.87890625 C-3 -1 -3 -1 0 0 Z " fill="#F3C0B1" transform="translate(258,302)"/>
<path d="M0 0 C0.33 0 0.66 0 1 0 C1 2.64 1 5.28 1 8 C4.3 8 7.6 8 11 8 C11 8.33 11 8.66 11 9 C7.04 9 3.08 9 -1 9 C-2.60031344 5.79937313 -1.03173691 3.27728194 0 0 Z " fill="#E29A8F" transform="translate(275,246)"/>
<path d="M0 0 C1.65 0.99 3.3 1.98 5 3 C5.33 2.34 5.66 1.68 6 1 C6 2.65 6 4.3 6 6 C4.02 6 2.04 6 0 6 C0 4.02 0 2.04 0 0 Z " fill="#D36F64" transform="translate(379,351)"/>
<path d="M0 0 C1.37432457 3.81756824 0.67975039 7.07255329 0 11 C-0.99 10.67 -1.98 10.34 -3 10 C-2.49287967 6.28111761 -1.88391785 3.26545761 0 0 Z " fill="#DC7E6F" transform="translate(235,347)"/>
<path d="M0 0 C0.66 0.66 1.32 1.32 2 2 C5.09926819 1.67801034 5.09926819 1.67801034 8 1 C7.34 2.65 6.68 4.3 6 6 C4.35 5.67 2.7 5.34 1 5 C0.67 3.35 0.34 1.7 0 0 Z " fill="#E27569" transform="translate(184,348)"/>
<path d="M0 0 C0.33 0 0.66 0 1 0 C1.16852247 1.60397277 1.33474886 3.2081869 1.5 4.8125 C1.5928125 5.70582031 1.685625 6.59914063 1.78125 7.51953125 C2 10 2 10 2 13 C0 12 0 12 -1 9 C-1.2295082 2.45901639 -1.2295082 2.45901639 0 0 Z " fill="#DF8173" transform="translate(315,340)"/>
<path d="M0 0 C2.5 1.5 2.5 1.5 4 3 C0.02903122 4.32365626 -2.06325535 3.24318252 -6 2 C-7.33130115 1.65864073 -8.66358148 1.32074044 -10 1 C-6.82253509 -0.58873246 -3.45987798 -0.41026221 0 0 Z " fill="#DF9685" transform="translate(331,332)"/>
<path d="M0 0 C2.3431213 0.25561323 4.67843403 0.59270772 7 1 C7.33 1.66 7.66 2.32 8 3 C6 5 6 5 3 6 C2.87625 5.195625 2.7525 4.39125 2.625 3.5625 C2.315625 2.2940625 2.315625 2.2940625 2 1 C1.34 0.67 0.68 0.34 0 0 Z " fill="#E15C4C" transform="translate(305,262)"/>
<path d="M0 0 C-1 3 -1 3 -3.8125 4.75 C-7.13982105 6.05483179 -7.79584277 6.02866653 -11 5 C-9.54462432 4.16151196 -8.08559627 3.32936066 -6.625 2.5 C-5.81289062 2.0359375 -5.00078125 1.571875 -4.1640625 1.09375 C-2 0 -2 0 0 0 Z " fill="#E0857D" transform="translate(250,209)"/>
<path d="M0 0 C1.19109375 0.00773437 1.19109375 0.00773437 2.40625 0.015625 C3.2003125 0.01046875 3.994375 0.0053125 4.8125 0 C6.90625 0.265625 6.90625 0.265625 8.90625 2.265625 C7.25625 2.595625 5.60625 2.925625 3.90625 3.265625 C3.90625 2.605625 3.90625 1.945625 3.90625 1.265625 C1.26625 1.595625 -1.37375 1.925625 -4.09375 2.265625 C-2.09375 0.265625 -2.09375 0.265625 0 0 Z " fill="#E38C80" transform="translate(159.09375,331.734375)"/>
<path d="M0 0 C1.125 1.6875 1.125 1.6875 2 4 C1.125 6.75 1.125 6.75 0 9 C0.66 9.33 1.32 9.66 2 10 C1.01 10 0.02 10 -1 10 C-2.15837626 5.94568308 -1.83691257 3.78187881 0 0 Z " fill="#EA5442" transform="translate(244,336)"/>
<path d="M0 0 C2.97 0 5.94 0 9 0 C9 0.33 9 0.66 9 1 C7.35 1 5.7 1 4 1 C4 1.66 4 2.32 4 3 C5.32 3.33 6.64 3.66 8 4 C7.01 4.495 7.01 4.495 6 5 C3.96855359 4.06553465 1.96466413 3.06775224 0 2 C0 1.34 0 0.68 0 0 Z " fill="#DB877D" transform="translate(239,304)"/>
<path d="M0 0 C0.33 0.99 0.66 1.98 1 3 C-2.63 2.34 -6.26 1.68 -10 1 C-10 0.67 -10 0.34 -10 0 C-6.30458414 -0.95024979 -3.69541586 -0.95024979 0 0 Z " fill="#DF8575" transform="translate(310,254)"/>
<path d="M0 0 C1.09570312 0.00902344 2.19140625 0.01804688 3.3203125 0.02734375 C4.16335938 0.03894531 5.00640625 0.05054688 5.875 0.0625 C5.875 0.3925 5.875 0.7225 5.875 1.0625 C4.98748047 1.15337891 4.98748047 1.15337891 4.08203125 1.24609375 C-0.03478208 1.68262371 -4.08044533 2.14921346 -8.125 3.0625 C-8.125 2.4025 -8.125 1.7425 -8.125 1.0625 C-5.36047967 -0.31976016 -3.0788637 -0.03275387 0 0 Z " fill="#DA5A46" transform="translate(258.125,207.9375)"/>
<path d="M0 0 C0.66 0 1.32 0 2 0 C2 0.66 2 1.32 2 2 C5.465 1.505 5.465 1.505 9 1 C8.34 2.65 7.68 4.3 7 6 C6.34 5.34 5.68 4.68 5 4 C2.42938689 3.35232207 2.42938689 3.35232207 0 3 C0 2.01 0 1.02 0 0 Z " fill="#D94E35" transform="translate(374,347)"/>
<path d="M0 0 C3 3.625 3 3.625 3 7 C3.66 7 4.32 7 5 7 C5 8.65 5 10.3 5 12 C4.67 10.68 4.34 9.36 4 8 C3.34 8 2.68 8 2 8 C0.3125 5.6875 0.3125 5.6875 -1 3 C-0.67 2.01 -0.34 1.02 0 0 Z " fill="#E08174" transform="translate(253,345)"/>
<path d="M0 0 C-0.66 1.32 -1.32 2.64 -2 4 C-2 3.34 -2 2.68 -2 2 C-3.1446875 2.7425 -3.1446875 2.7425 -4.3125 3.5 C-7 5 -7 5 -10 5 C-6.75728676 1.53365137 -4.90610505 0 0 0 Z " fill="#EC938A" transform="translate(316,278)"/>
<path d="M0 0 C1.11375 0.1546875 1.11375 0.1546875 2.25 0.3125 C-0.32404971 4.17357457 -2.36020259 4.25569692 -6.75 5.3125 C-3.42692308 0.38942308 -3.42692308 0.38942308 0 0 Z " fill="#DA614E" transform="translate(268.75,261.6875)"/>
<path d="M0 0 C0.99 0 1.98 0 3 0 C3.33 1.32 3.66 2.64 4 4 C5.32 4.33 6.64 4.66 8 5 C7.01 5.33 6.02 5.66 5 6 C2.3125 4.1875 2.3125 4.1875 0 2 C0 1.34 0 0.68 0 0 Z " fill="#DE7B6E" transform="translate(289,352)"/>
<path d="M0 0 C2.37783838 2.37783838 2.59009208 3.72073665 3 7 C2.67 7.66 2.34 8.32 2 9 C1.34 9 0.68 9 0 9 C0 6.03 0 3.06 0 0 Z " fill="#DE8579" transform="translate(280,349)"/>
<path d="M0 0 C2.97 0 5.94 0 9 0 C8.67 0.66 8.34 1.32 8 2 C5.2303041 2.72886734 2.87137415 3 0 3 C0 2.01 0 1.02 0 0 Z " fill="#DA7260" transform="translate(321,339)"/>
<path d="M0 0 C1.67542976 0.28604898 3.34385343 0.61781233 5 1 C4.01 3.31 3.02 5.62 2 8 C1.67 8 1.34 8 1 8 C0.34 5.69 -0.32 3.38 -1 1 C-0.67 0.67 -0.34 0.34 0 0 Z " fill="#E37464" transform="translate(309,230)"/>
<path d="M0 0 C-3.96 1.98 -3.96 1.98 -8 4 C-8 2.68 -8 1.36 -8 0 C-4.71303767 -0.79953138 -3.28976808 -1.09658936 0 0 Z " fill="#E28776" transform="translate(289,215)"/>
<path d="M0 0 C2 3 2 3 2 7 C1.01 7 0.02 7 -1 7 C-1.04254356 5.00045254 -1.04080783 2.99958364 -1 1 C-0.67 0.67 -0.34 0.34 0 0 Z " fill="#E74C38" transform="translate(278,350)"/>
<path d="M0 0 C2 3 2 3 1.625 5.1875 C1.41875 5.785625 1.2125 6.38375 1 7 C0.01 6.67 -0.98 6.34 -2 6 C-2 4.68 -2 3.36 -2 2 C-1.34 2 -0.68 2 0 2 C0 1.34 0 0.68 0 0 Z " fill="#E24C34" transform="translate(319,345)"/>
<path d="M0 0 C1.65 0 3.3 0 5 0 C5.33 1.65 5.66 3.3 6 5 C5.34 5 4.68 5 4 5 C2.61767557 3.37373596 1.28062485 1.7074998 0 0 Z " fill="#E38479" transform="translate(380,340)"/>
<path d="M0 0 C0 0.66 0 1.32 0 2 C-2.31 2.66 -4.62 3.32 -7 4 C-7 3.01 -7 2.02 -7 1 C-3.375 -1.125 -3.375 -1.125 0 0 Z " fill="#E2776B" transform="translate(302,338)"/>
<path d="M0 0 C2.6015625 -0.29296875 2.6015625 -0.29296875 5.625 -0.1875 C7.12933594 -0.14689453 7.12933594 -0.14689453 8.6640625 -0.10546875 C9.43492187 -0.07066406 10.20578125 -0.03585937 11 0 C11 0.33 11 0.66 11 1 C10.09507812 1.09087891 10.09507812 1.09087891 9.171875 1.18359375 C7.97304688 1.30927734 7.97304688 1.30927734 6.75 1.4375 C5.96109375 1.51871094 5.1721875 1.59992188 4.359375 1.68359375 C2.17635361 1.97634993 0.1226818 2.42064419 -2 3 C-1.34 2.01 -0.68 1.02 0 0 Z " fill="#CB7464" transform="translate(269,259)"/>
<path d="M0 0 C2.31 0.33 4.62 0.66 7 1 C7 1.99 7 2.98 7 4 C3.73045798 3.43628586 2.17424117 2.50037734 0 0 Z " fill="#D96955" transform="translate(311,257)"/>
<path d="M0 0 C2 3 2 3 2 5 C1.01 5.66 0.02 6.32 -1 7 C-1.66 7.99 -2.32 8.98 -3 10 C-2.39009109 6.44219804 -1.4216319 3.3171411 0 0 Z " fill="#DF7A6D" transform="translate(221,234)"/>
<path d="M0 0 C0 0.99 0 1.98 0 3 C-0.66 3 -1.32 3 -2 3 C-2.33 3.99 -2.66 4.98 -3 6 C-5.0625 6.6875 -5.0625 6.6875 -7 7 C-7 6.34 -7 5.68 -7 5 C-5.46875 3.7109375 -5.46875 3.7109375 -3.5 2.375 C-2.8503125 1.92898437 -2.200625 1.48296875 -1.53125 1.0234375 C-1.0259375 0.68570313 -0.520625 0.34796875 0 0 Z " fill="#D98173" transform="translate(238,215)"/>
</svg>
